# xmcd
#
# Track frame offsets:
#	150
#	23167
#	43271
#	62686
#	85781
#	109461
#	127977
#	149305
#	175482
#	194119
#	210172
#	229502
#	247054
#	267360
#
# Disc length: 3851 seconds
# Revision: 2
# Processed by: cddbd v1.5.2PL0 Copyright (c) Steve Scherf et al.
# Submitted via: dBpowerAMP V12.0
#
DISCID=cd0f090e
DTITLE=JossStone,AKAJoscelynEveStoker,Dover,Kent,England,UK - Water For Your Soul
DYEAR=2015
DGENRE=Blues
TTITLE0=Love Me
TTITLE1=This Ain't Love
TTITLE2=Stuck On You
TTITLE3=Star
TTITLE4=Let Me Breathe
TTITLE5=Cut The Line
TTITLE6=Wake Up
TTITLE7=Way Oh
TTITLE8=Underworld
TTITLE9=Molly Town
TTITLE10=Sensimilla
TTITLE11=Harry's Symphony
TTITLE12=Clean Water
TTITLE13=The Answer
EXTD=
EXTT0=
EXTT1=
EXTT2=
EXTT3=
EXTT4=
EXTT5=
EXTT6=
EXTT7=
EXTT8=
EXTT9=
EXTT10=
EXTT11=
EXTT12=
EXTT13=
PLAYORDER=
